#define 8143c90551bf4150a95015f806b9e107dFiqTByZ4gwLTwL9_width 16
#define 8143c90551bf4150a95015f806b9e107dFiqTByZ4gwLTwL9_height 16
static char 8143c90551bf4150a95015f806b9e107dFiqTByZ4gwLTwL9_bits[] = {
  0x06, 0x00, 0x1E, 0x00, 0x1E, 0x00, 0x1E, 0x00, 0xDE, 0x01, 0xDF, 0x0F, 
  0xDF, 0x1F, 0xDF, 0x1F, 0xDF, 0x1F, 0xDF, 0x07, 0xDF, 0x07, 0x98, 0x03, 
  0xC0, 0x07, 0x00, 0x03, 0x00, 0x00, 0x00, 0x00, };
